PathFileType	4	(X/Y/Z)	c:/Users/goper/Files/vsCode/490R/osim_files/C11/C11_Slow_03.trc
DataRate	CameraRate	NumFrames	NumMarkers	Units                	OrigDataRate	OrigDataStartFrame	OrigNumFrames
120.00	120.00	9	36	mm	120.0	1016	1354
                Frame#	Time	LPSIS			LASIS			LTH1			LTH2			LTH3			LTH4			LLFE			LMFE			LSH1			LSH2			LSH3			LSH4			LLMAL			LMMAL			LCAL			LMTP5			LTOE			LMTP1			RPSIS			RASIS			RTH1			RTH2			RTH3			RTH4			RLFE			RMFE			RSH1			RSH2			RSH3			RSH4			RLMAL			RMMAL			RCAL			RMTP1			RTOE			RMTP5		
		X1	Y1	Z1	X2	Y2	Z2	X3	Y3	Z3	X4	Y4	Z4	X5	Y5	Z5	X6	Y6	Z6	X7	Y7	Z7	X8	Y8	Z8	X9	Y9	Z9	X10	Y10	Z10	X11	Y11	Z11	X12	Y12	Z12	X13	Y13	Z13	X14	Y14	Z14	X15	Y15	Z15	X16	Y16	Z16	X17	Y17	Z17	X18	Y18	Z18	X19	Y19	Z19	X20	Y20	Z20	X21	Y21	Z21	X22	Y22	Z22	X23	Y23	Z23	X24	Y24	Z24	X25	Y25	Z25	X26	Y26	Z26	X27	Y27	Z27	X28	Y28	Z28	X29	Y29	Z29	X30	Y30	Z30	X31	Y31	Z31	X32	Y32	Z32	X33	Y33	Z33	X34	Y34	Z34	X35	Y35	Z35	X36	Y36	Z36

1016	8.45833	-2548.69727	1007.08478	279.58832	-2728.17896	1021.41309	341.34085	-2829.89673	658.38361	409.77939	-2845.15454	614.72736	402.87695	-2775.30249	635.46399	397.15063	-2799.06763	593.82080	395.04712	-2723.81714	523.94385	429.95319	-2832.88818	544.08942	393.00113	-2756.16211	479.85669	405.98236	-2732.68701	438.39407	404.33548	-2805.99243	446.66599	412.36060	-2778.37061	411.31461	411.47235	-2615.36304	197.99234	361.89017	-2657.67090	192.67128	273.92685	-2550.87500	191.60980	301.59357	-2681.38452	95.58141	401.52817	-2760.39355	80.13444	344.81067	-2723.27393	79.74436	296.23019	-2549.73828	1021.98828	194.30177	-2714.36938	1004.43787	111.35401	-2656.28247	640.93048	80.66277	-2664.57544	598.17883	87.33558	-2718.34399	644.23456	87.43555	-2719.92090	603.12256	91.75907	-2690.71069	516.70544	105.34027	-2676.10571	499.09354	217.77901	-2620.48438	407.82248	97.12061	-2623.76904	361.95984	101.09631	-2684.39404	403.43600	100.30816	-2678.02905	356.81839	102.42918	-2629.18799	101.89045	158.69449	-2665.03760	112.79169	249.54887	-2571.02856	65.98891	216.81564	-2791.56763	57.66821	222.35037	-2790.82788	69.90247	170.68211	-2743.36938	47.26268	111.89208
1017	8.46667	-2555.53979	1007.20428	279.30383	-2735.40039	1021.51093	339.99625	-2839.17627	659.70520	408.57043	-2854.58325	616.10498	401.58453	-2784.96045	636.19611	396.60580	-2808.12305	594.88245	394.07031	-2728.12280	523.49567	429.06183	-2843.58447	545.07257	391.92020	-2768.67065	476.98834	405.53699	-2746.88037	435.07950	403.75006	-2820.00879	446.01910	410.91824	-2793.74487	409.43732	410.04684	-2640.07153	189.18779	360.38541	-2682.05420	186.13803	272.23349	-2576.94751	179.48952	301.09689	-2711.21924	89.81522	399.23984	-2790.58936	78.50089	341.94162	-2753.10107	76.86829	294.24438	-2556.29639	1022.13275	193.98407	-2720.83984	1005.45996	108.09507	-2659.49829	641.24884	79.93374	-2667.36768	598.37610	86.51883	-2721.61401	643.92249	86.59959	-2722.81519	602.79626	91.00562	-2692.66479	516.47900	104.57347	-2678.44653	499.12659	217.23499	-2621.64331	407.99191	96.78234	-2624.66650	362.08905	100.81586	-2685.88062	403.22528	99.76125	-2679.04126	356.61240	102.00388	-2629.25464	101.86308	158.75935	-2664.76978	112.88446	249.09131	-2571.06519	66.05329	216.85149	-2791.57837	57.60850	222.33707	-2790.86304	69.83730	170.68629	-2743.38184	47.24196	111.87681
1018	8.47500	-2561.54663	1007.56866	279.11963	-2742.66846	1021.46033	338.81378	-2847.78760	660.60724	407.25043	-2863.28809	616.83539	400.22406	-2793.13232	636.72650	395.54501	-2817.57080	595.54584	393.39569	-2732.43555	523.05194	428.16888	-2853.13989	545.59967	390.62149	-2780.80151	473.70160	405.04904	-2760.85400	431.40933	402.96936	-2833.43555	445.08759	409.36349	-2808.79639	407.38849	408.65094	-2665.11621	180.35658	358.91284	-2704.33936	179.85078	268.70865	-2602.69556	167.61148	299.87799	-2741.27173	84.37067	397.00403	-2820.79126	77.08665	339.14587	-2783.46875	73.83274	291.72516	-2563.43506	1021.95868	193.86159	-2726.89429	1005.25922	106.90804	-2662.74463	641.32458	79.14554	-2670.27075	598.44653	85.76797	-2724.86108	643.54291	85.89564	-2725.85913	602.47284	90.21578	-2694.67163	516.17456	103.93107	-2680.63916	498.96875	216.66174	-2623.02979	407.98178	96.61710	-2625.74829	362.21243	100.56448	-2687.34937	403.04324	99.22128	-2680.12207	356.39868	101.58289	-2629.29907	101.83365	158.82983	-2666.18213	112.79378	248.73331	-2570.93604	66.10463	216.85472	-2791.51782	57.51546	222.32253	-2790.83301	69.77805	170.68346	-2743.37231	47.21499	111.84630
1019	8.48333	-2568.29517	1007.57922	278.86496	-2749.85571	1021.32111	337.59558	-2855.96069	661.05981	405.92117	-2871.67163	617.44757	398.89084	-2801.45068	636.92181	394.57300	-2824.64868	596.31366	391.96631	-2736.75732	522.61279	427.27448	-2862.24341	545.89716	389.26566	-2792.79419	470.30646	404.40466	-2774.62646	427.46091	402.22961	-2847.14185	444.32468	408.47107	-2823.66724	405.48914	407.09906	-2690.74634	171.61348	357.32550	-2729.31641	173.21651	267.18298	-2628.82788	156.01276	298.63007	-2771.67896	79.28342	394.88074	-2852.29248	76.73391	337.18756	-2813.85840	71.05764	289.34564	-2570.00195	1021.99213	193.49454	-2733.26733	1004.99951	105.86553	-2666.19385	641.41614	78.41970	-2673.42896	598.50531	85.06454	-2728.29663	643.18726	85.17606	-2728.91895	602.08453	89.50085	-2696.69580	515.79669	103.34114	-2682.76709	498.92438	216.10040	-2624.53198	408.03262	96.31721	-2626.97900	362.21075	100.35342	-2688.79712	402.82236	98.64523	-2681.32861	356.14691	101.16818	-2629.36133	101.77829	158.88084	-2666.22803	112.78063	248.77225	-2570.88843	66.17154	216.85011	-2792.10254	57.92010	222.21500	-2790.81006	69.69482	170.64349	-2743.42236	47.19823	111.81700
1020	8.49167	-2575.04175	1007.44562	278.58615	-2757.18091	1021.08160	336.37512	-2863.67554	661.23682	404.61505	-2879.50122	617.67676	397.45914	-2809.09058	636.87592	393.44675	-2832.50854	596.27704	390.75989	-2741.08887	522.17847	426.37863	-2870.38013	545.64233	387.76453	-2804.28174	466.54422	403.63235	-2788.16064	423.30905	401.17621	-2859.28247	443.06857	406.47849	-2838.24414	403.32812	405.71265	-2716.85645	163.09445	355.81888	-2754.16675	166.82060	264.29694	-2654.82959	144.89841	297.11374	-2802.36987	74.78300	392.76120	-2879.93530	75.15880	334.32593	-2844.43799	68.70346	287.14020	-2576.60596	1021.98053	193.20433	-2739.85718	1004.67719	104.97328	-2669.63037	641.51868	77.63844	-2676.19897	598.40936	84.26866	-2731.71216	642.76044	84.59234	-2732.12012	601.72766	88.81731	-2698.82861	515.44519	102.70592	-2685.23706	498.92270	215.56526	-2625.94458	408.09213	95.96889	-2628.19360	362.21170	100.05561	-2686.27563	400.80615	98.97954	-2682.43701	355.85263	100.74709	-2629.43359	101.72234	158.94637	-2668.32739	112.08819	247.53496	-2570.89966	66.16315	216.86081	-2792.12769	57.87958	222.18604	-2791.07715	69.62254	170.65477	-2743.43115	47.13988	111.76390
1021	8.50000	-2581.66211	1007.33691	278.21786	-2764.39990	1020.70636	335.28699	-2870.81787	660.81299	403.21603	-2886.86719	617.63672	395.90469	-2816.32349	636.26154	392.23859	-2840.55542	595.73761	389.70200	-2745.43042	521.74908	425.48148	-2878.43530	545.08936	386.32703	-2815.51953	462.54770	402.74042	-2801.40112	418.93054	400.02475	-2872.24927	441.81458	405.64645	-2852.31445	401.03333	404.33521	-2743.26831	154.86217	354.23477	-2779.88159	160.62711	262.72134	-2682.26880	133.54608	295.98532	-2833.16162	70.75695	390.79694	-2912.28638	75.49215	331.90189	-2875.35840	66.83679	285.04495	-2584.51611	1021.56927	192.91177	-2746.64941	1004.37738	104.14121	-2673.11035	641.46643	76.96992	-2679.36108	598.41443	83.52164	-2735.27808	642.31500	83.95860	-2735.32812	601.34473	88.21232	-2701.03882	515.14124	102.08255	-2687.28613	498.85004	215.00764	-2627.76074	408.00586	95.32251	-2629.19702	362.19366	99.59379	-2687.70386	400.49680	98.48302	-2683.78467	355.57230	100.30784	-2629.48511	101.68533	158.99586	-2665.25317	112.57271	248.92842	-2570.82080	66.17664	216.85374	-2792.13525	57.82678	222.15228	-2791.00586	69.64790	170.53763	-2743.69702	47.14672	111.74175
1022	8.50833	-2588.39575	1007.16382	277.87677	-2771.66357	1020.29919	334.19263	-2877.43042	660.07996	401.72882	-2893.39136	616.62634	394.52765	-2823.05713	635.54950	390.80447	-2846.30640	595.06842	387.89099	-2749.78345	521.32501	424.58304	-2885.93408	544.13940	384.89725	-2826.52563	458.27820	401.76425	-2814.37964	414.26239	398.98468	-2883.94385	440.15897	404.27469	-2866.16943	398.45963	403.08838	-2770.43018	146.88171	352.58862	-2806.79712	153.67474	262.31320	-2710.24341	122.73454	294.45499	-2864.18774	67.24711	388.82990	-2943.81055	76.58999	330.47644	-2906.28711	65.60802	283.03659	-2591.18286	1021.41333	192.55333	-2754.71411	1004.07880	103.61308	-2676.64551	641.55420	76.23119	-2682.89502	598.46277	82.87606	-2738.84521	641.84583	83.45332	-2738.59058	600.97382	87.64661	-2703.21167	514.79797	101.43311	-2689.54150	498.61349	214.45251	-2628.87378	408.03177	94.98469	-2630.53394	362.21100	99.18421	-2689.24536	400.17407	97.99345	-2684.97388	355.28229	99.88699	-2629.47900	101.65583	159.04362	-2665.23999	112.52629	248.95946	-2570.78638	66.15765	216.92957	-2792.09229	57.77431	222.11906	-2790.99927	69.60554	170.50757	-2743.44775	47.02663	111.72527
1023	8.51667	-2597.28149	1006.53412	277.34866	-2778.89819	1019.67249	333.21744	-2883.63110	658.90637	400.33771	-2899.65259	615.74689	392.93164	-2829.08008	634.38867	389.13995	-2852.50513	593.93066	386.32605	-2754.14917	520.90637	423.68338	-2892.88037	542.86285	383.34396	-2837.18604	453.73154	400.63089	-2827.47583	409.48108	397.96808	-2894.98560	438.51447	402.44287	-2879.76025	396.24023	401.64053	-2797.68701	139.44167	351.10022	-2831.52783	148.01509	259.82596	-2739.07812	112.53218	292.82336	-2895.13672	64.51311	386.93765	-2974.78833	78.27904	328.43738	-2936.26733	63.92276	280.57709	-2597.87573	1021.22699	192.22047	-2761.03296	1003.60492	102.67435	-2680.19360	641.55695	75.57567	-2685.86792	598.33820	82.09843	-2742.46240	641.40790	82.88386	-2741.89258	600.53992	87.06525	-2708.24438	514.56506	101.26115	-2691.86108	498.48526	213.88670	-2630.38403	408.05206	94.52552	-2631.88916	362.23151	98.86601	-2690.74805	399.90860	97.50792	-2686.34839	355.05774	99.41092	-2629.47827	101.64980	159.10196	-2665.27686	112.49557	248.99350	-2570.79077	66.15359	216.94095	-2792.54077	58.09984	221.91167	-2790.96826	69.58086	170.47757	-2743.40503	46.97575	111.67320
1024	8.52500	-2604.66333	1006.00751	276.94516	-2786.17407	1018.92114	332.27802	-2889.25244	657.35858	398.85782	-2905.25781	614.17987	391.41360	-2834.65088	632.89490	387.21567	-2858.95605	592.35645	384.74268	-2758.52832	520.49335	422.78256	-2899.41553	541.26080	381.81937	-2847.40479	448.97296	399.22885	-2840.21924	404.60220	396.69775	-2906.40552	436.73532	401.56412	-2892.97852	393.62253	400.44589	-2825.02466	132.70822	349.49210	-2857.97900	143.28123	258.25540	-2767.18555	103.46317	291.70416	-2926.12402	62.48985	385.00122	-3003.78491	78.87563	326.22397	-2968.05566	64.78428	278.23453	-2604.57397	1020.94513	191.84657	-2767.58911	1003.07904	101.73180	-2683.87646	641.48456	74.87390	-2689.30786	598.34485	81.42988	-2749.75952	642.68854	81.97996	-2745.20483	600.06378	86.53460	-2710.36133	514.18188	100.60376	-2694.10547	498.38852	213.21156	-2631.99829	408.03229	93.96694	-2633.27954	362.17453	98.33408	-2692.15308	399.54120	96.93591	-2687.49951	354.77112	98.92934	-2629.52539	101.61578	159.09450	-2665.23682	112.46115	249.02582	-2570.79810	66.14631	216.94522	-2791.20923	57.14978	220.31024	-2790.96265	69.52894	170.41379	-2743.40186	46.92373	111.64682
